<?xml version="1.0" encoding="UTF-8"?>
<svg id="Layer_1" data-name="Layer 1" xmlns="http://www.w3.org/2000/svg" xmlns:xlink="http://www.w3.org/1999/xlink" viewBox="0 0 383.25 285.94">
  <defs>
    <style>
      .cls-1 {
        letter-spacing: 0em;
      }

      .cls-2 {
        fill: url(#linear-gradient-2);
      }

      .cls-3 {
        fill: #4e4e4c;
        font-family: AcuminConcept-Bold, 'Acumin Variable Concept';
        font-size: 117.42px;
        font-variation-settings: 'wght' 700, 'wdth' 100, 'slnt' 0;
      }

      .cls-3, .cls-4 {
        font-weight: 700;
      }

      .cls-5 {
        letter-spacing: 0em;
      }

      .cls-6 {
        letter-spacing: 0em;
      }

      .cls-7 {
        letter-spacing: 0em;
      }

      .cls-4 {
        fill: #b662a7;
        font-family: Corbel-Bold, Corbel;
        font-size: 14px;
      }

      .cls-8 {
        fill: url(#linear-gradient);
      }
    </style>
    <linearGradient id="linear-gradient" x1="103.92" y1="102.13" x2="223.09" y2="56.92" gradientUnits="userSpaceOnUse">
      <stop offset=".19" stop-color="#337c97"/>
      <stop offset="1" stop-color="#315467"/>
    </linearGradient>
    <linearGradient id="linear-gradient-2" x1="205.95" y1="95.94" x2="300.98" y2="95.94" gradientUnits="userSpaceOnUse">
      <stop offset="0" stop-color="#8a6249"/>
      <stop offset="1" stop-color="#534b4a"/>
    </linearGradient>
  </defs>
  <g>
    <path class="cls-8" d="M231.27.13s5.48,1.94,3.58,6.78l-72.67,146.82s-1.55,4.7-8.85,4.66h-53.56s-6.86-1.38-3.75-8.98L167.54,4.52s1.9-4.49,6.47-4.52l57.25.13Z"/>
    <path class="cls-2" d="M239.8,158.19s-3.71.43-5.9-3.91l-27.71-56.19s-.81-3.74.49-6.53l27.27-54.84s1.68-3.02,5.33-3.04,5.16,2.52,5.44,3.37l56.04,113.77s1.6,6.02-3.88,7.39h-57.08Z"/>
    <text class="cls-3" transform="translate(0 255.38)"><tspan class="cls-5" x="0" y="0">A</tspan><tspan x="81.25" y="0">r</tspan><tspan class="cls-1" x="127.51" y="0">s</tspan><tspan class="cls-7" x="188.57" y="0">e</tspan><tspan class="cls-6" x="254.09" y="0">n</tspan><tspan x="322.66" y="0">s</tspan></text>
  </g>
  <text class="cls-4" transform="translate(65.29 185.85) scale(1.5 1)"><tspan x="0" y="0">Creative</tspan></text>
</svg>